<svg width="350" height="300" viewBox="0 0 350 300" fill="none" xmlns="http://www.w3.org/2000/svg">
<rect width="350" height="300" fill="white"/>
<path fill-rule="evenodd" clip-rule="evenodd" d="M289.8 97.5C295.212 97.5 299.6 102.201 299.6 108C299.6 113.799 295.212 118.5 289.8 118.5H233.8C239.212 118.5 243.6 123.201 243.6 129C243.6 134.799 239.212 139.5 233.8 139.5H264.6C270.012 139.5 274.4 144.201 274.4 150C274.4 155.799 270.012 160.5 264.6 160.5H250.357C243.532 160.5 238 165.201 238 171C238 174.866 240.8 178.366 246.4 181.5C251.812 181.5 256.2 186.201 256.2 192C256.2 197.799 251.812 202.5 246.4 202.5H130.2C124.788 202.5 120.4 197.799 120.4 192C120.4 186.201 124.788 181.5 130.2 181.5H75.6C70.1877 181.5 65.8 176.799 65.8 171C65.8 165.201 70.1877 160.5 75.6 160.5H131.6C137.012 160.5 141.4 155.799 141.4 150C141.4 144.201 137.012 139.5 131.6 139.5H96.6C91.1877 139.5 86.8 134.799 86.8 129C86.8 123.201 91.1877 118.5 96.6 118.5H152.6C147.188 118.5 142.8 113.799 142.8 108C142.8 102.201 147.188 97.5 152.6 97.5H289.8ZM289.8 139.5C295.212 139.5 299.6 144.201 299.6 150C299.6 155.799 295.212 160.5 289.8 160.5C284.388 160.5 280 155.799 280 150C280 144.201 284.388 139.5 289.8 139.5Z" fill="#F3F7FF"/>
<path fill-rule="evenodd" clip-rule="evenodd" d="M139.919 199.789L142.005 199.711V231.209C142.005 231.922 142.546 232.5 143.214 232.5H215.79C216.458 232.5 217 231.922 217 231.209V123.233C217 120.619 215.014 118.5 212.565 118.5H146.44C143.99 118.5 142.005 120.619 142.005 123.233V145.684L139.919 145.607C139.674 145.598 139.428 145.593 139.182 145.593C126.533 145.593 116.2 157.686 116.2 172.698C116.2 187.709 126.533 199.802 139.182 199.802C139.428 199.802 139.674 199.798 139.919 199.789ZM140.15 189.435C139.829 189.463 139.506 189.477 139.182 189.477C131.547 189.477 125.5 181.894 125.5 172.698C125.5 163.501 131.547 155.919 139.182 155.919C139.506 155.919 139.829 155.932 140.15 155.96L142.005 156.119V189.277L140.15 189.435Z" fill="white" stroke="#65558F" stroke-width="2.5" stroke-linejoin="round"/>
<path d="M205.8 127.772V155.25M205.8 163.772V170.887V163.772Z" stroke="#65558F" stroke-width="2.5" stroke-linecap="round" stroke-linejoin="round"/>
<path d="M93.979 220.5H103.6M253.579 220.5H257.6M225.4 220.5H246.999M112 220.5H136.436" stroke="#65558F" stroke-width="2.5" stroke-linecap="round" stroke-linejoin="round"/>
<path d="M179.2 52.5C175.467 58.8203 173.6 64.3203 173.6 69C173.6 77.3342 180.115 81.0667 180.115 90.0945C180.115 94.6765 177.944 99.2261 173.6 103.743" stroke="#65558F" stroke-width="2.5" stroke-linecap="round"/>
<path d="M162.4 69C161.179 77.269 166.6 78.7983 166.6 86.2119C166.6 89.9746 165.2 93.7373 162.4 97.5" stroke="#65558F" stroke-width="2.5" stroke-linecap="round"/>
<path d="M188.713 65.2112C186.864 70.34 187.903 73.4661 188.713 75.3062C190.446 79.2393 193.2 82.6344 193.2 86.6367C193.2 91.2852 191.705 95.7588 188.713 100.058" stroke="#65558F" stroke-width="2.5" stroke-linecap="round"/>
<path d="M147 125.5C147 124.948 147.448 124.5 148 124.5L175 124.5V228H148C147.448 228 147 227.552 147 227V125.5Z" fill="#E8F0FE"/>
</svg>
